<svg xmlns="http://www.w3.org/2000/svg" xmlns:xlink="http://www.w3.org/1999/xlink" width="42.44" height="42.44" viewBox="0 0 42.44 42.44"><defs><clipPath id="b"><rect width="42.44" height="42.44"/></clipPath></defs><g id="a" clip-path="url(#b)"><path d="M6.29,46.792H0V25.575A21.164,21.164,0,0,1,6.064,10.738a2.213,2.213,0,0,1,.316-.316,21.18,21.18,0,0,1,29.665-.016c.063.053.121.105.179.163a1.327,1.327,0,0,1,.163.179,21.2,21.2,0,0,1-.153,29.823c-.01.01-.021.026-.032.036a21.1,21.1,0,0,1-14.974,6.185ZM17.817,42.2h3.406a16.5,16.5,0,0,0,9.422-2.927c-1.153-.721-2.579-1.658-4.143-2.763A44.533,44.533,0,0,1,17.817,42.2ZM9.406,40.634a40.713,40.713,0,0,0,13.337-6.943c-1.153-.921-2.316-1.905-3.448-2.942ZM6.143,37.4,16.048,27.5c-1.042-1.132-2.027-2.3-2.942-3.453A40.639,40.639,0,0,0,6.143,37.4Zm23.8-4.1c1.69,1.163,3.163,2.095,4.2,2.727A16.592,16.592,0,0,0,37.249,21.18C36.4,24.617,34.339,28.754,29.944,33.3Zm-7.39-5.811c1.206,1.1,2.453,2.137,3.685,3.095,5.911-5.927,7.053-10.748,6.969-13.748ZM4.6,25.57v3.406a44.688,44.688,0,0,1,5.69-8.685c-1.1-1.558-2.037-2.979-2.758-4.132A16.526,16.526,0,0,0,4.6,25.57Zm11.611-5.011c.958,1.232,1.995,2.479,3.09,3.685L29.959,13.585q-.14,0-.285,0C26.664,13.581,21.959,14.827,16.211,20.559Zm5.006-11.6a16.53,16.53,0,0,0-10.443,3.7c.632,1.037,1.563,2.511,2.721,4.19,4.542-4.39,8.679-6.453,12.117-7.3a16.382,16.382,0,0,0-4.34-.59Z" transform="translate(0 -4.353)" fill="#3180da"/></g></svg>